<svg xmlns="http://www.w3.org/2000/svg" xmlns:xlink="http://www.w3.org/1999/xlink" version="1.1" width="1000" height="1000" viewBox="0 0 1000 1000" xml:space="preserve">
<desc>Created with Fabric.js 3.5.0</desc>
<defs>
</defs>
<rect x="0" y="0" width="100%" height="100%" fill-opacity="0"/>
<g transform="matrix(0.8649 0 0 0.8649 466.9839 500.5205)" id="587470">
<path style="stroke: none; stroke-width: 1; stroke-dasharray: none; stroke-linecap: butt; stroke-dashoffset: 0; stroke-linejoin: miter; stroke-miterlimit: 4; is-custom-font: none; font-file-url: none; fill: rgb(237,188,0); fill-rule: nonzero; opacity: 1;" vector-effect="non-scaling-stroke" transform=" translate(-599.9975, -599.999)" d="m 923.65 678.28 c 11.746 -4.8594 21.613 -8.2305 22.559 -8.5547 c 39.469 -13.633 65.09 -35.652 78.238 -67.32 c 13.129 -31.598 10.402 -67.414 -7.8477 -103.64 c -0.51562 -1.0195 -1.1523 -2.2422 -1.8828 -3.6484 c -5.3984 -10.402 -19.777 -38.062 -19.777 -60.395 c 0 -20.184 8.6055 -37.668 18.574 -57.887 c 1.1289 -2.2695 2.2422 -4.5469 3.3477 -6.8047 c 17.977 -37.055 20.543 -71.688 7.6328 -102.93 c -13.246 -31.906 -39.961 -54.695 -79.414 -67.766 c -20.438 -6.7695 -45.863 -15.227 -59.41 -29.27 c -15.348 -15.961 -20.977 -32.641 -28.078 -53.734 c -0.74219 -2.2578 -1.5117 -4.5117 -2.2695 -6.7695 l -0.011719 -0.046875 l -0.058594 -0.14453 l -0.046875 -0.14453 c -12.445 -38.555 -35.82 -65.902 -67.645 -79.117 c -13.199 -5.4492 -27.121 -8.207 -41.426 -8.207 c -20.016 0 -40.934 5.4492 -62.16 16.188 c -20.004 10.105 -42.707 21.574 -63.898 21.574 c -20.316 0 -42.73 -10.355 -61.957 -20.508 c -21.742 -11.473 -43.297 -17.281 -64.043 -17.281 c -14.387 0 -28.402 2.7617 -41.652 8.2578 c -31.57 13.055 -54.266 39.469 -67.465 78.527 c -0.60156 1.7422 -1.2617 3.7344 -1.9453 5.8828 c -5.0898 15.625 -12.781 39.238 -28.453 55.246 c -13.691 13.945 -35.41 21.289 -54.602 27.77 c -2.1484 0.74219 -4.2461 1.4414 -6.2656 2.1484 c -39.48 13.645 -65.062 35.664 -78.238 67.32 c -13.188 31.801 -9.9492 71.027 8.6758 104.96 c 13.391 24.469 20.93 42.395 20.93 61.754 c 0 19.332 -8.5312 38.293 -18.816 59.258 c -1.0547 2.1484 -2.1133 4.2852 -3.168 6.4453 c -17.988 37.008 -20.566 71.629 -7.6797 102.9 c 11.773 28.355 34.246 49.488 66.77 63.035 l -159.65 353.52 l 211.69 1.2461 l 140.89 157.98 l 124.13 -274.85 l 125.82 274.71 l 140.75 -157.82 l 211.68 -1.2461 z m -666.38 -93.242 c -10.008 -24.254 -1.8359 -48.527 6.5625 -65.785 c 12.254 -25.246 25.922 -50.09 26.438 -84.527 h -0.058593 h 0.085937 c 0.79297 -33.625 -20.184 -73.105 -26.449 -84.539 c -11.664 -21.254 -14.617 -46.344 -6.5742 -65.746 c 9.0977 -21.816 27.898 -33.84 51.156 -41.867 c 23.27 -8.0039 55.246 -17.375 78.48 -41.062 c 25.656 -26.184 35.352 -61.777 40.969 -78.348 c 8.8672 -26.293 22.441 -43.129 41.82 -51.133 c 8.207 -3.4062 16.367 -4.8008 24.324 -4.8008 c 15.551 0 30.277 5.3867 42.898 12.059 c 22.488 11.832 51.84 25.727 83.102 25.727 c 31.234 0 59.723 -13.992 84.336 -26.438 c 14.93 -7.5469 28.777 -11.281 41.723 -11.281 c 8.3867 0 16.402 1.5859 24.059 4.7383 c 24.215 10.043 36.133 33.359 41.867 51.145 l 0.16797 0.60156 c 8.8789 25.883 16.129 52.164 40.801 77.773 c 20.629 21.406 50.746 31.895 77.762 40.848 c 27.012 8.9648 43.754 22.668 51.805 42.059 c 10.02 24.238 1.8594 48.516 -6.5391 65.785 c -12.266 25.246 -26.461 50.844 -26.461 84.527 c 0 36.445 21.254 74.027 26.531 84.445 c 11.879 23.566 14.52 46.441 6.4688 65.832 c -9.0703 21.816 -27.898 33.84 -51.145 41.867 c -23.258 8.0039 -55.246 17.375 -78.457 41.074 c -25.68 26.184 -35.375 61.777 -40.969 78.348 c -8.9023 26.27 -22.441 43.117 -41.844 51.145 c -8.207 3.3711 -16.355 4.7773 -24.324 4.7773 c -15.551 0 -30.254 -5.3867 -42.875 -12.047 c -22.488 -11.855 -51.863 -25.754 -83.102 -25.754 c -31.246 0 -59.746 14.004 -84.359 26.449 c -14.902 7.5469 -28.766 11.281 -41.711 11.281 c -8.3867 0 -16.402 -1.5977 -24.059 -4.7539 c -24.215 -10.055 -36.145 -33.336 -41.867 -51.145 l -0.19141 -0.58984 c -8.8789 -25.871 -16.105 -52.164 -40.777 -77.773 c -20.641 -21.406 -50.762 -31.895 -77.773 -40.836 c -26.992 -8.9688 -43.746 -22.676 -51.82 -42.055 z m 205.21 510.83 l -107.87 -120.91 l -162.09 -0.98438 l 132.31 -292.93 c 11.473 4.9062 22.141 10.812 29.387 18.336 c 15.348 15.938 20.953 32.605 28.043 53.652 c 0.76953 2.3164 1.5586 4.6094 2.3281 6.8984 l 0.035156 0.13281 c 12.492 38.746 35.879 66.07 67.727 79.262 c 13.199 5.4375 27.109 8.207 41.426 8.207 c 20.016 0 40.922 -5.4375 62.148 -16.199 c 10.402 -5.2578 21.539 -10.848 32.797 -15.047 z m 382.89 -120.91 l -108.01 121.08 l -113.4 -247.59 l 16.117 -35.688 c 14.258 3.7695 28.738 10.668 41.746 17.508 c 21.77 11.461 43.309 17.281 64.02 17.281 c 14.387 0 28.402 -2.7734 41.664 -8.2578 c 31.559 -13.031 54.254 -39.445 67.477 -78.492 c 0.57422 -1.7539 14.004 -42.961 29.207 -59.809 l 123.29 272.96 z" stroke-linecap="round"/>
</g>
<g transform="matrix(1 0 0 1 466.967 361.1917)" style="" id="702495">
		
<path xml:space="preserve" font-family="Lato" font-size="409" font-style="normal" font-weight="normal" style="stroke: none; stroke-width: 1; stroke-dasharray: none; stroke-linecap: butt; stroke-dashoffset: 0; stroke-linejoin: miter; stroke-miterlimit: 4; is-custom-font: none; font-file-url: none; fill: rgb(237,188,0); fill-rule: nonzero; opacity: 1; white-space: pre;" d="M-59.92 128.48L-59.92 100.67L3.07 100.67L3.07-99.13Q3.07-108.12 3.68-117.33L3.68-117.33L-48.67-72.54Q-50.72-70.90-52.76-70.19Q-54.81-69.47-56.65-69.47L-56.65-69.47Q-59.71-69.47-62.17-70.80Q-64.62-72.13-65.85-73.97L-65.85-73.97L-77.30-89.72L9.82-165.18L39.47-165.18L39.47 100.67L97.14 100.67L97.14 128.48L-59.92 128.48Z"/></g>
</svg>